<svg width="10" height="10" viewBox="0 0 10 10" fill="none" xmlns="http://www.w3.org/2000/svg">
<path d="M9.08513 8.8802V5.54687H5.00002V8.8802H9.08513ZM9.08513 -9.53674e-06C9.32626 -9.53674e-06 9.53903 0.112838 9.72342 0.338532C9.90782 0.564227 10 0.824643 10 1.11978V8.8802C10 9.17534 9.90782 9.43575 9.72342 9.66145C9.53903 9.88714 9.32626 9.99999 9.08513 9.99999H0.914914C0.673779 9.99999 0.461013 9.88714 0.276616 9.66145C0.0922188 9.43575 2.01804e-05 9.17534 2.01804e-05 8.8802V1.11978C2.01804e-05 0.824643 0.0922188 0.564227 0.276616 0.338532C0.461013 0.112838 0.673779 -9.53674e-06 0.914914 -9.53674e-06H9.08513Z" fill="black"/>
</svg>
