<svg width="25" height="25" viewBox="0 0 25 25" fill="none" xmlns="http://www.w3.org/2000/svg">
<path d="M23.1741 14.8987C21.8144 12.6269 22.6321 9.71553 25 8.39268L22.4535 4.1375C21.7259 4.54897 20.88 4.78491 19.9773 4.78491C17.256 4.78491 15.0499 2.64268 15.0499 0H9.95676C9.96349 0.815674 9.75243 1.64263 9.29985 2.39873C7.94027 4.67061 4.91784 5.44321 2.54646 4.12622L0 8.3814C0.733134 8.78354 1.36783 9.37232 1.8192 10.1265C3.17659 12.3947 2.36359 15.3003 0.00450462 16.6261L2.55101 20.8813C3.27605 20.4736 4.1179 20.2403 5.01588 20.2403C7.72866 20.2403 9.92902 22.369 9.94309 25H15.0362C15.034 24.1925 15.2455 23.3748 15.6933 22.6265C17.0506 20.3583 20.0657 19.5847 22.4353 20.8928L24.9818 16.6377C24.2535 16.2357 23.6231 15.649 23.1741 14.8987ZM12.5 17.5619C9.60216 17.5619 7.25299 15.2957 7.25299 12.5C7.25299 9.70439 9.60211 7.43814 12.5 7.43814C15.3978 7.43814 17.7469 9.70439 17.7469 12.5C17.7468 15.2957 15.3978 17.5619 12.5 17.5619Z" fill="black"/>
</svg>
