<svg width="10" height="10" viewBox="0 0 10 10" fill="none" xmlns="http://www.w3.org/2000/svg">
<path d="M8.74269 1.99531H7.48538C7.48538 1.61972 7.37329 1.28326 7.14912 0.985916C6.92495 0.688576 6.62768 0.449922 6.25731 0.269953C5.88694 0.0899844 5.46784 0 5 0C4.53216 0 4.11306 0.0899844 3.74269 0.269953C3.37232 0.449922 3.07505 0.688576 2.85088 0.985916C2.62671 1.28326 2.51462 1.61972 2.51462 1.99531H1.25731C0.906433 1.99531 0.609162 2.09311 0.365497 2.28873C0.121832 2.48435 0 2.723 0 3.00469V9.01408C0 9.28013 0.121832 9.51096 0.365497 9.70657C0.609162 9.90219 0.906433 10 1.25731 10H8.74269C9.09357 10 9.39084 9.90219 9.6345 9.70657C9.87817 9.51096 10 9.28013 10 9.01408V3.00469C10 2.723 9.87817 2.48435 9.6345 2.28873C9.39084 2.09311 9.09357 1.99531 8.74269 1.99531ZM3.74269 3.99061C3.74269 4.13146 3.68421 4.25274 3.56725 4.35446C3.45029 4.45618 3.30409 4.50704 3.12866 4.50704C2.95322 4.50704 2.80702 4.45618 2.69006 4.35446C2.5731 4.25274 2.51462 4.13146 2.51462 3.99061V3.00469H3.74269V3.99061ZM5 0.985916C5.35088 0.985916 5.64815 1.08372 5.89181 1.27934C6.13548 1.47496 6.25731 1.71362 6.25731 1.99531H3.74269C3.74269 1.71362 3.86452 1.47496 4.10819 1.27934C4.35185 1.08372 4.64912 0.985916 5 0.985916ZM7.48538 3.99061C7.48538 4.13146 7.4269 4.25274 7.30994 4.35446C7.19298 4.45618 7.04678 4.50704 6.87135 4.50704C6.69591 4.50704 6.54971 4.45618 6.43275 4.35446C6.31579 4.25274 6.25731 4.13146 6.25731 3.99061V3.00469H7.48538V3.99061Z" fill="black"/>
</svg>
