<svg xmlns="http://www.w3.org/2000/svg" xmlns:xlink="http://www.w3.org/1999/xlink" width="500" zoomAndPan="magnify" viewBox="0 0 375 374.999991" height="500" preserveAspectRatio="xMidYMid meet" version="1.0"><defs><clipPath id="ad40ebbace"><path d="M 218 64.257812 L 295.765625 64.257812 L 295.765625 173 L 218 173 Z M 218 64.257812 " clip-rule="nonzero"/></clipPath><clipPath id="727e898597"><path d="M 83 305 L 258.5625 305 L 258.5625 369.59375 L 83 369.59375 Z M 83 305 " clip-rule="nonzero"/></clipPath></defs><path fill="#3b435f" d="M 287.390625 284.21875 C 287.640625 285.542969 290.050781 291.488281 287.832031 292.097656 C 287.210938 292.277344 286.566406 292.414062 285.933594 292.523438 C 285.972656 294.070312 286.027344 295.613281 286.082031 297.144531 C 286.289062 302.210938 286.511719 307.273438 286.71875 312.335938 C 286.746094 313.039062 287.40625 316.488281 286.730469 317.082031 C 286.097656 317.648438 280.902344 316.984375 279.914062 317.125 C 273.988281 317.910156 268.230469 320.214844 262.613281 322.171875 C 258.148438 323.730469 245.488281 329.84375 240.847656 326.601562 C 238.519531 324.972656 244.347656 321.25 245.269531 320.546875 C 252.707031 314.847656 259.609375 308.363281 265.035156 300.664062 C 266.632812 298.414062 267.875 296.054688 268.78125 293.546875 C 267.542969 293.738281 266.261719 293.988281 265.105469 294.441406 C 264.59375 294.648438 264.125 295.753906 263.742188 295.367188 C 263.230469 294.855469 263.164062 291.984375 263.023438 291.296875 C 262.199219 287.15625 261.316406 283.019531 260.667969 278.851562 C 257.847656 260.777344 257.324219 242.316406 256.660156 224.078125 C 256.359375 215.898438 255.957031 207.730469 255.601562 199.5625 C 255.476562 196.800781 255.367188 194.042969 255.171875 191.285156 C 255.171875 191.226562 255.007812 188.800781 254.84375 188.855469 C 254.347656 189.007812 254.183594 192.992188 254.125 193.40625 C 253.425781 199.175781 252.789062 204.929688 252.363281 210.722656 C 251.042969 228.605469 250.503906 246.609375 250.105469 264.53125 C 250.007812 269.109375 249.996094 273.691406 249.84375 278.273438 C 249.789062 280.121094 249.996094 283.046875 248.5625 284.507812 C 245.902344 287.199219 237.472656 284.355469 234.277344 283.789062 C 233.976562 283.75 230.3125 283.515625 230.160156 283.210938 C 228.726562 280.355469 228.90625 275.457031 228.574219 272.394531 C 227.582031 263.21875 227.28125 254.003906 227.226562 244.789062 C 227.15625 233.238281 227.28125 221.675781 227.460938 210.128906 C 227.652344 197.214844 227.957031 184.289062 228.453125 171.375 C 228.601562 167.648438 230.0625 161.605469 229.816406 157.207031 L 229.265625 157.164062 C 229.265625 157.164062 227.320312 115.097656 226.039062 110.984375 C 224.757812 106.875 210.214844 108.558594 207.417969 106.515625 C 205.324219 104.984375 209.332031 98.761719 209.332031 98.761719 C 225.339844 62.324219 241.082031 70.574219 252.171875 65.621094 C 259.511719 62.351562 261.6875 64.546875 275.847656 69.042969 C 286.441406 72.425781 293.4375 85.890625 293.8125 88.828125 C 294.445312 93.90625 286.746094 130.992188 282.695312 149.988281 C 289.101562 184.5625 283.21875 220.410156 284.59375 255.328125 C 284.96875 264.984375 285.613281 274.710938 287.390625 284.21875 " fill-opacity="1" fill-rule="evenodd"/><path fill="#bd651d" d="M 274.652344 40.25 C 273.507812 43.835938 270.820312 46.390625 267.789062 48.457031 C 267.996094 56.695312 270.40625 72.78125 270.40625 72.78125 C 270.40625 72.78125 255.628906 79.625 250.917969 71.304688 C 250.378906 70.339844 253.464844 62.078125 253.148438 59.34375 C 253.078125 59.359375 252.996094 59.371094 252.929688 59.386719 C 243.671875 61.070312 238.742188 48.652344 238.742188 45.421875 C 238.753906 44.652344 240.007812 38.582031 238.769531 37.160156 C 238.601562 36.964844 238.175781 34 238.191406 34.042969 L 260.433594 27.734375 C 267.707031 28.136719 269.015625 32.246094 268.867188 37.835938 C 271.34375 33.890625 276.730469 33.75 274.652344 40.25 " fill-opacity="1" fill-rule="evenodd"/><path fill="#d13123" d="M 168.644531 188.9375 L 169.8125 151.078125 C 177.789062 150.816406 240.863281 172.09375 258.371094 176.105469 C 258.976562 176.246094 257.378906 284.121094 255.765625 296.871094 C 254.429688 307.507812 251.070312 289.363281 250.792969 288.949219 C 249.445312 286.785156 251.304688 189.683594 250.847656 182.8125 C 247.832031 181.886719 176.355469 157.289062 176.355469 157.289062 L 175.902344 188.261719 L 168.644531 188.9375 " fill-opacity="1" fill-rule="evenodd"/><g clip-path="url(#ad40ebbace)"><path fill="#fce8bc" d="M 233.949219 69.664062 C 233.960938 69.664062 233.988281 69.664062 234.015625 69.679688 L 233.949219 69.734375 C 233.90625 69.679688 233.90625 69.664062 233.949219 69.664062 Z M 265.324219 117.566406 C 265.269531 118.203125 283.039062 124.878906 287.296875 119.554688 C 291.539062 114.226562 293.605469 94.941406 290.808594 85.628906 C 287.640625 75.046875 277.210938 77.695312 271.054688 94.375 C 268.769531 100.582031 265.710938 113.316406 265.324219 117.566406 Z M 234.015625 69.679688 L 235.808594 68.3125 C 239.871094 67.125 244.113281 66.4375 248.230469 65.429688 C 248.921875 65.261719 251.496094 64.171875 252.210938 64.710938 C 252.472656 64.90625 252.03125 66.230469 251.992188 66.476562 C 251.648438 68.476562 236.59375 163.511719 236.59375 163.511719 C 236.59375 163.511719 218.699219 160.183594 218.105469 160.074219 C 217.472656 159.949219 224.03125 115.746094 225.929688 109.621094 C 227.582031 104.335938 235.558594 83.144531 235.890625 77.613281 C 236 75.734375 236.152344 73.652344 235.585938 71.832031 C 235.394531 71.222656 235.160156 70.574219 234.730469 70.105469 C 234.609375 69.953125 234.207031 69.734375 234.015625 69.679688 Z M 246.164062 165.578125 C 244.871094 167.234375 264.527344 92.195312 266.550781 87.667969 C 268.535156 83.269531 269.472656 65.429688 269.472656 65.429688 C 271.332031 65.207031 286.46875 71.691406 291.496094 78.921875 C 299.183594 89.945312 294.996094 115.484375 290.382812 131.378906 C 286.484375 144.800781 289.773438 172.851562 289.773438 172.851562 C 289.773438 172.851562 246.21875 165.511719 246.164062 165.578125 " fill-opacity="1" fill-rule="evenodd"/></g><path fill="#d13123" d="M 287.046875 120.339844 C 286.910156 120.285156 286.757812 120.230469 286.605469 120.175781 C 281.453125 124.273438 265.269531 118.175781 265.324219 117.566406 C 265.394531 116.835938 265.558594 115.789062 265.765625 114.613281 C 263.5625 114.269531 261.359375 113.953125 259.167969 113.664062 C 257.15625 121.113281 255.023438 129.265625 253.050781 136.867188 C 256.855469 137.019531 260.65625 137.199219 264.445312 137.488281 C 269.15625 137.847656 274.238281 138.441406 278.699219 140 C 281.867188 141.117188 284.898438 142.648438 287.792969 144.320312 C 287.859375 144.359375 288.203125 144.582031 288.589844 144.84375 C 288.796875 139.847656 289.304688 135.0625 290.382812 131.378906 C 291.164062 128.6875 291.921875 125.707031 292.625 122.574219 C 290.847656 121.800781 289.03125 121.222656 287.046875 120.339844 Z M 232.226562 110.421875 C 236.425781 110.65625 240.613281 111.191406 244.789062 111.773438 C 243.453125 120.1875 242.101562 128.714844 240.890625 136.371094 C 237.472656 136.207031 234.042969 136.027344 230.628906 135.738281 C 227.957031 135.503906 225.296875 135.183594 222.625 134.882812 C 222.542969 134.882812 221.964844 134.867188 221.414062 134.839844 C 222.996094 124.5625 224.746094 114.214844 225.710938 110.421875 C 226.136719 110.324219 227.445312 110.269531 227.542969 110.269531 C 229.097656 110.269531 230.667969 110.335938 232.226562 110.421875 " fill-opacity="1" fill-rule="evenodd"/><path fill="#bd651d" d="M 272.074219 114.890625 C 269.015625 115.195312 266.6875 116.378906 266.6875 116.378906 C 266.6875 116.378906 262.378906 132.757812 255.007812 141.546875 C 247.417969 150.597656 243.976562 160.667969 242.804688 161.496094 C 239.828125 163.632812 229.816406 162.65625 230.683594 166.933594 C 231.273438 169.855469 233.546875 167.457031 234.402344 171.664062 C 235.0625 174.933594 228.699219 174.480469 228.796875 177.636719 C 228.917969 181.695312 241.882812 183.984375 244.828125 182.992188 C 250.132812 181.226562 250.984375 171.871094 252.875 167.523438 C 253.660156 165.703125 262.046875 156.859375 268.273438 145.257812 C 270.078125 141.878906 278.976562 130.066406 282.570312 120.546875 C 284.582031 115.195312 277.417969 114.351562 272.074219 114.890625 Z M 224.703125 108.0625 C 220.65625 114.917969 217.636719 119.429688 212.03125 125.222656 C 207.429688 129.96875 206.6875 137.929688 197.402344 147.519531 C 194.9375 150.042969 201.617188 156.417969 201.425781 157.148438 C 200.570312 160.488281 200.242188 157.910156 197.445312 159.714844 C 195.269531 161.125 196.496094 164.1875 194.539062 165.785156 C 191.507812 168.257812 185.945312 167.207031 184.152344 164.601562 C 181.121094 160.183594 179.511719 158.652344 182.308594 154.570312 C 185.117188 150.457031 186.398438 147.644531 189.566406 143.960938 C 191.523438 141.683594 210.710938 104.046875 210.710938 104.046875 C 216.824219 103.066406 221.425781 104.527344 224.703125 108.0625 " fill-opacity="1" fill-rule="evenodd"/><g clip-path="url(#727e898597)"><path fill="#d13123" d="M 85.75 316.171875 C 85.679688 315.441406 85.308594 317.566406 85.113281 318.269531 C 84.660156 319.925781 84.300781 321.609375 84.097656 323.320312 C 83.394531 328.949219 83.558594 335.914062 89.425781 338.730469 C 100.40625 344.011719 108.929688 331.898438 108.214844 322.007812 Z M 255.144531 305.699219 L 237.417969 313.480469 C 238.300781 312.929688 237.074219 315.550781 237.019531 316.597656 C 236.894531 318.65625 236.882812 320.726562 236.949219 322.792969 C 237.15625 328.4375 239.320312 337.171875 246.714844 336.867188 C 257.722656 336.398438 261.632812 312.640625 255.144531 305.699219 Z M 182.625 341.863281 C 184.179688 345.574219 184.375 349.367188 183.835938 353.339844 C 183.410156 356.429688 182.734375 359.5625 181.273438 362.335938 C 174.9375 374.367188 162.074219 370.308594 159.359375 358.417969 C 159.082031 357.191406 157.210938 348.746094 159.195312 348.097656 L 182.625 341.863281 " fill-opacity="1" fill-rule="evenodd"/></g><path fill="#fce8bc" d="M 92.140625 336.066406 C 91.480469 334.671875 91.132812 333.058594 91.011719 331.417969 C 90.957031 330.769531 90.941406 330.105469 90.941406 329.472656 C 90.957031 328.464844 91.011719 327.472656 91.132812 326.546875 C 91.203125 325.882812 91.300781 325.222656 91.425781 324.574219 C 91.546875 323.910156 91.6875 323.25 91.851562 322.601562 C 91.890625 322.40625 92.085938 322.199219 92.238281 321.992188 C 92.386719 321.800781 92.511719 321.609375 92.566406 321.429688 C 92.609375 321.234375 92.59375 321.054688 92.441406 320.890625 C 92.359375 320.792969 92.207031 320.792969 92.125 320.875 C 92.03125 320.945312 92.015625 321.097656 92.097656 321.195312 C 92.152344 321.261719 92.097656 321.332031 92.058594 321.414062 C 91.949219 321.582031 91.769531 321.757812 91.617188 321.953125 C 91.480469 322.117188 91.367188 322.296875 91.3125 322.464844 C 91.121094 323.113281 90.957031 323.773438 90.789062 324.4375 C 90.640625 325.097656 90.515625 325.773438 90.40625 326.449219 C 90.265625 327.402344 90.15625 328.421875 90.128906 329.457031 C 90.117188 330.132812 90.144531 330.808594 90.199219 331.472656 C 90.347656 333.222656 90.75 334.921875 91.507812 336.382812 C 92.527344 338.382812 94.179688 339.914062 96.714844 340.496094 C 96.851562 340.535156 96.988281 340.453125 97.015625 340.316406 C 97.058594 340.179688 96.976562 340.039062 96.835938 340.011719 C 94.507812 339.40625 93.035156 337.929688 92.140625 336.066406 Z M 250.929688 335.292969 C 248.078125 334.824219 246.332031 332.660156 245.269531 329.871094 C 244.554688 327.996094 244.140625 325.828125 243.933594 323.703125 C 243.824219 322.628906 243.742188 321.566406 243.714844 320.53125 C 243.6875 319.398438 243.6875 318.324219 243.726562 317.359375 C 243.769531 316.667969 243.808594 315.992188 243.890625 315.316406 C 243.960938 314.640625 244.058594 313.964844 244.179688 313.289062 C 244.25 312.984375 244.511719 312.707031 244.636719 312.417969 C 244.71875 312.226562 244.746094 312.03125 244.675781 311.824219 C 244.648438 311.703125 244.511719 311.632812 244.402344 311.675781 C 244.277344 311.703125 244.210938 311.839844 244.25 311.949219 C 244.265625 312.046875 244.238281 312.144531 244.195312 312.226562 C 244.058594 312.542969 243.769531 312.847656 243.6875 313.179688 C 243.519531 313.867188 243.382812 314.542969 243.285156 315.234375 C 243.175781 315.921875 243.105469 316.628906 243.050781 317.316406 C 242.984375 318.296875 242.929688 319.386719 242.941406 320.546875 C 242.957031 321.59375 242.996094 322.699219 243.105469 323.789062 C 243.339844 325.980469 243.808594 328.214844 244.582031 330.132812 C 245.792969 333.113281 247.777344 335.375 250.863281 335.777344 C 251 335.804688 251.125 335.707031 251.152344 335.570312 C 251.164062 335.433594 251.070312 335.308594 250.929688 335.292969 Z M 178.132812 366.28125 C 178.242188 366.210938 178.410156 366.253906 178.464844 366.378906 C 178.546875 366.503906 178.492188 366.652344 178.382812 366.722656 C 175.847656 368.226562 173.699219 367.910156 172.019531 366.515625 C 170.640625 365.414062 169.566406 363.605469 168.835938 361.480469 C 168.410156 360.265625 168.105469 358.957031 167.898438 357.632812 C 167.734375 356.417969 167.625 355.203125 167.570312 353.976562 C 167.511719 352.761719 167.511719 351.53125 167.570312 350.320312 C 167.582031 349.917969 167.609375 349.519531 167.636719 349.117188 C 167.664062 348.71875 167.707031 348.332031 167.746094 347.933594 C 167.773438 347.765625 167.859375 347.519531 167.941406 347.285156 C 167.96875 347.226562 167.996094 347.160156 168.023438 347.105469 L 168.007812 347.078125 C 167.925781 346.980469 167.953125 346.84375 168.0625 346.757812 C 168.1875 346.664062 168.285156 346.691406 168.339844 346.71875 C 168.421875 346.746094 168.492188 346.8125 168.503906 346.953125 C 168.503906 347.117188 168.285156 347.699219 168.257812 347.972656 C 168.230469 348.375 168.214844 348.757812 168.1875 349.160156 C 168.175781 349.546875 168.175781 349.933594 168.175781 350.332031 C 168.160156 351.53125 168.214844 352.734375 168.296875 353.933594 C 168.382812 355.132812 168.519531 356.335938 168.699219 357.507812 C 168.890625 358.789062 169.195312 360.058594 169.578125 361.21875 C 170.253906 363.203125 171.203125 364.929688 172.445312 366.003906 C 173.933594 367.261719 175.832031 367.566406 178.132812 366.28125 " fill-opacity="1" fill-rule="evenodd"/><path fill="#3b435f" d="M 106.246094 286.289062 L 237.433594 277.332031 L 259.566406 289.558594 L 260.847656 304.210938 L 164.441406 351.601562 L 79.910156 315.828125 L 78.722656 296.621094 L 106.246094 286.289062 " fill-opacity="1" fill-rule="evenodd"/><path fill="#f5ba53" d="M 121.246094 217.125 L 119.25 216.351562 L 119.386719 189.421875 L 171.261719 178.382812 L 234.964844 197.574219 L 234.359375 221.71875 L 242.335938 223.472656 L 240.214844 297.269531 L 170.296875 327.582031 L 102.59375 293.515625 L 106.589844 218.820312 L 121.246094 217.125 " fill-opacity="1" fill-rule="evenodd"/><path fill="#f5ba53" d="M 267.183594 30.742188 C 267.777344 30.039062 268.398438 29.417969 269.222656 28.976562 C 269.652344 28.757812 270.117188 28.578125 270.601562 28.480469 C 274.96875 27.585938 274.925781 33.558594 274.925781 36.316406 C 274.925781 36.980469 274.953125 37.65625 274.914062 38.316406 C 274.898438 38.402344 274.734375 37.960938 274.707031 37.890625 C 274.554688 37.546875 274.359375 37.214844 274.113281 36.925781 C 273.492188 36.195312 272.417969 35.945312 271.511719 36.136719 C 270.378906 36.402344 269.5 37.3125 268.808594 38.179688 L 269.210938 37.710938 C 269.140625 37.835938 269.070312 37.960938 269.003906 38.082031 C 268.867188 38.316406 268.726562 38.554688 268.589844 38.773438 C 268.480469 38.964844 268.355469 39.160156 268.230469 39.339844 C 268.191406 39.421875 268.136719 39.492188 268.09375 39.558594 L 268.011719 39.683594 L 268.011719 39.699219 C 267.984375 39.726562 267.96875 39.738281 267.96875 39.726562 L 270.421875 35.574219 C 269.472656 37.105469 268.742188 38.761719 267.640625 40.179688 C 267.128906 40.828125 266.59375 41.449219 266.082031 42.085938 C 266.042969 42.125 265.65625 42.734375 265.585938 42.707031 C 265.449219 42.664062 265.464844 41.988281 265.449219 41.878906 C 265.378906 40.996094 265.257812 40.179688 264.910156 39.351562 C 263.933594 36.980469 262.199219 34.855469 260.601562 32.882812 C 260.1875 32.371094 259.761719 31.875 259.320312 31.378906 C 259.277344 31.324219 258.976562 30.964844 258.960938 30.949219 L 260.917969 29.417969 C 263.453125 29.171875 266.304688 29.199219 268.808594 29.625 L 267.183594 30.742188 " fill-opacity="1" fill-rule="evenodd"/><path fill="#3b435f" d="M 271.304688 39.808594 C 270.929688 40.058594 270.574219 40.320312 270.242188 40.609375 C 270.007812 40.800781 269.800781 40.996094 269.59375 41.203125 C 269.429688 41.382812 269.25 41.5625 269.085938 41.738281 C 268.921875 41.933594 268.753906 42.140625 268.617188 42.347656 C 268.5625 42.429688 268.507812 42.539062 268.480469 42.679688 C 268.453125 42.789062 268.4375 42.886719 268.425781 42.96875 L 268.410156 42.980469 C 268.300781 43.035156 268.273438 43.175781 268.328125 43.285156 C 268.371094 43.394531 268.453125 43.421875 268.507812 43.4375 C 268.574219 43.464844 268.644531 43.4375 268.726562 43.394531 C 268.769531 43.367188 268.824219 43.285156 268.878906 43.160156 C 268.949219 43.023438 269.003906 42.800781 269.085938 42.71875 C 269.210938 42.582031 269.347656 42.457031 269.484375 42.332031 C 269.691406 42.140625 269.898438 41.960938 270.117188 41.796875 C 270.105469 41.835938 270.089844 41.878906 270.078125 41.933594 C 270.035156 42.070312 270.007812 42.210938 269.980469 42.359375 C 269.96875 42.539062 269.953125 42.71875 269.941406 42.886719 C 269.914062 43.160156 269.898438 43.421875 269.882812 43.683594 C 269.871094 43.824219 269.953125 43.960938 270.089844 43.988281 C 270.230469 44.003906 270.351562 43.917969 270.378906 43.78125 C 270.464844 43.519531 270.546875 43.269531 270.628906 43.023438 C 270.683594 42.859375 270.738281 42.691406 270.78125 42.511719 C 270.808594 42.375 270.835938 42.238281 270.863281 42.085938 C 270.890625 41.945312 270.890625 41.796875 270.902344 41.644531 C 270.902344 41.601562 270.945312 41.285156 270.929688 41.089844 C 271.304688 40.773438 271.675781 40.441406 272.074219 40.140625 C 272.527344 39.792969 272.996094 39.476562 273.480469 39.257812 C 273.605469 39.203125 273.671875 39.0625 273.617188 38.925781 C 273.574219 38.800781 273.425781 38.746094 273.300781 38.789062 C 272.613281 39.023438 271.9375 39.378906 271.304688 39.808594 Z M 259.773438 54.003906 C 258.988281 54.859375 258.164062 55.621094 257.28125 56.324219 C 256.839844 56.667969 256.398438 57 255.929688 57.332031 C 255.476562 57.648438 255.023438 57.964844 254.527344 58.253906 C 254.25 58.421875 253.726562 58.863281 253.246094 59.136719 C 253.066406 59.261719 252.886719 59.359375 252.75 59.359375 C 252.625 59.359375 252.515625 59.453125 252.515625 59.578125 C 252.515625 59.703125 252.613281 59.8125 252.734375 59.8125 C 252.929688 59.828125 253.203125 59.757812 253.492188 59.621094 C 254.003906 59.398438 254.582031 59.011719 254.871094 58.875 C 255.394531 58.613281 255.917969 58.324219 256.398438 57.992188 C 256.882812 57.660156 257.335938 57.300781 257.777344 56.902344 C 258.644531 56.144531 259.417969 55.273438 260.144531 54.335938 C 260.242188 54.226562 260.230469 54.074219 260.117188 53.976562 C 260.023438 53.894531 259.855469 53.910156 259.773438 54.003906 Z M 246.082031 49.136719 C 246.070312 49.105469 246.054688 49.078125 246.027344 49.105469 C 246.054688 49.121094 246.054688 49.121094 246.070312 49.136719 Z M 253.714844 48.183594 C 253.644531 48.058594 253.492188 48.003906 253.367188 48.074219 C 252.292969 48.542969 251.398438 49.164062 250.378906 49.507812 C 250.0625 49.605469 249.734375 49.6875 249.386719 49.726562 C 249.070312 49.757812 248.726562 49.769531 248.367188 49.726562 C 248.300781 49.714844 247.941406 49.617188 247.542969 49.519531 C 247.074219 49.398438 246.535156 49.257812 246.234375 49.164062 C 246.179688 49.148438 246.125 49.148438 246.082031 49.136719 L 246.097656 49.164062 L 246.070312 49.136719 C 246.042969 49.136719 246.027344 49.121094 246.027344 49.105469 C 245.917969 49.039062 245.78125 49.078125 245.710938 49.191406 C 245.695312 49.21875 245.628906 49.398438 245.820312 49.519531 C 245.863281 49.535156 245.945312 49.578125 246.054688 49.632812 C 246.34375 49.757812 246.867188 49.992188 247.335938 50.167969 C 247.777344 50.335938 248.175781 50.472656 248.257812 50.488281 C 248.6875 50.554688 249.097656 50.582031 249.472656 50.542969 C 249.882812 50.5 250.285156 50.390625 250.65625 50.238281 C 251.191406 50.03125 251.6875 49.726562 252.183594 49.410156 C 252.640625 49.105469 253.09375 48.789062 253.601562 48.527344 C 253.726562 48.457031 253.769531 48.308594 253.714844 48.183594 Z M 243.78125 39.863281 C 243.546875 39.863281 243.328125 39.820312 243.121094 39.738281 C 242.984375 39.683594 242.859375 39.613281 242.734375 39.519531 C 242.597656 39.421875 242.472656 39.3125 242.351562 39.171875 C 242.210938 39.035156 242.089844 38.910156 241.976562 38.761719 C 241.910156 38.664062 241.796875 38.375 241.742188 38.316406 C 241.660156 38.222656 241.566406 38.195312 241.507812 38.207031 C 241.46875 38.222656 241.414062 38.222656 241.371094 38.277344 C 241.34375 38.304688 241.304688 38.347656 241.304688 38.441406 C 241.289062 38.511719 241.316406 38.582031 241.359375 38.621094 C 241.386719 38.761719 241.425781 38.964844 241.46875 39.0625 C 241.566406 39.257812 241.660156 39.449219 241.785156 39.628906 C 241.910156 39.820312 242.074219 39.988281 242.226562 40.140625 C 242.378906 40.277344 242.542969 40.375 242.707031 40.441406 C 242.957031 40.554688 243.230469 40.609375 243.507812 40.609375 C 244.125 40.609375 244.761719 40.375 245.269531 40.027344 C 245.394531 39.960938 245.433594 39.808594 245.367188 39.683594 C 245.296875 39.558594 245.144531 39.519531 245.023438 39.585938 C 244.648438 39.765625 244.210938 39.863281 243.78125 39.863281 Z M 251.964844 39.160156 C 251.949219 39.117188 251.9375 39.089844 251.910156 39.105469 C 251.882812 39.105469 251.921875 39.117188 251.921875 39.132812 C 251.9375 39.144531 251.949219 39.144531 251.964844 39.160156 Z M 252.335938 39.007812 C 252.335938 39.035156 252.335938 39.078125 252.324219 39.105469 C 252.363281 39.078125 252.378906 39.050781 252.390625 39.023438 C 252.460938 39.1875 252.570312 39.449219 252.652344 39.558594 C 252.789062 39.710938 252.957031 39.851562 253.136719 39.945312 C 253.285156 40.042969 253.464844 40.085938 253.644531 40.085938 C 253.808594 40.085938 253.976562 40.070312 254.125 40.027344 C 254.375 39.960938 254.59375 39.851562 254.800781 39.699219 C 255.394531 39.285156 255.875 38.648438 256.289062 38.113281 C 256.371094 38 256.523438 37.972656 256.648438 38.054688 C 256.757812 38.140625 256.785156 38.289062 256.703125 38.402344 C 256.316406 39.035156 255.875 39.792969 255.269531 40.304688 C 254.996094 40.527344 254.691406 40.71875 254.347656 40.816406 C 254.113281 40.882812 253.878906 40.898438 253.617188 40.882812 C 253.300781 40.871094 252.996094 40.746094 252.734375 40.554688 C 252.5 40.386719 252.308594 40.167969 252.15625 39.917969 C 252.101562 39.835938 252.046875 39.699219 252.003906 39.558594 C 251.976562 39.449219 251.976562 39.296875 251.964844 39.203125 C 251.921875 39.171875 251.894531 39.117188 251.882812 39.0625 C 251.839844 38.84375 252.003906 38.773438 252.03125 38.761719 C 252.046875 38.761719 252.253906 38.71875 252.351562 38.9375 C 252.351562 38.953125 252.363281 38.964844 252.378906 38.996094 C 252.363281 38.996094 252.351562 38.996094 252.335938 38.996094 C 252.335938 38.996094 252.335938 38.996094 252.335938 39.007812 Z M 246.6875 41.269531 C 246.453125 41.683594 246.207031 42.097656 246.011719 42.527344 C 245.835938 42.914062 245.695312 43.328125 245.601562 43.742188 C 245.488281 44.320312 245.765625 44.832031 246.246094 45.175781 C 246.828125 45.589844 247.695312 45.796875 248.230469 45.753906 C 248.382812 45.742188 248.480469 45.617188 248.480469 45.480469 C 248.464844 45.339844 248.355469 45.246094 248.21875 45.246094 C 247.84375 45.246094 247.308594 45.078125 246.882812 44.804688 C 246.535156 44.582031 246.246094 44.292969 246.34375 43.90625 C 246.46875 43.421875 246.703125 42.980469 246.921875 42.527344 C 247.171875 42.042969 247.417969 41.5625 247.613281 41.0625 C 247.722656 40.789062 247.816406 40.527344 247.875 40.25 C 247.902344 40.140625 247.996094 39.421875 247.886719 39.105469 C 247.832031 38.9375 247.734375 38.84375 247.613281 38.816406 C 247.554688 38.800781 247.488281 38.789062 247.40625 38.816406 C 247.292969 38.855469 247.210938 38.980469 247.253906 39.105469 C 247.28125 39.171875 247.335938 39.230469 247.417969 39.257812 C 247.445312 39.503906 247.308594 39.988281 247.28125 40.070312 C 247.128906 40.484375 246.910156 40.882812 246.6875 41.269531 Z M 274.96875 33.242188 C 274.96875 33.242188 262.695312 31.820312 261.097656 31.832031 C 259.484375 31.847656 257.722656 36.925781 251.714844 36.785156 C 245.695312 36.648438 228.105469 34.550781 228.105469 34.550781 L 236.507812 25.171875 C 239.140625 8.613281 253.507812 5.109375 266.578125 9.539062 C 281.179688 14.492188 274.96875 33.242188 274.96875 33.242188 " fill-opacity="1" fill-rule="nonzero"/><path fill="#f5ba53" d="M 218.753906 104.320312 C 218.039062 104.058594 217.335938 103.839844 216.648438 103.671875 C 215.902344 103.496094 215.1875 103.355469 214.496094 103.273438 C 212.609375 103.039062 211.011719 103.136719 210.089844 103.355469 C 209.539062 103.496094 208.972656 103.671875 208.449219 103.921875 C 208.09375 104.101562 207.761719 104.308594 207.460938 104.570312 C 207.335938 104.679688 207.226562 104.792969 207.128906 104.929688 C 207.046875 105.066406 206.976562 105.234375 206.949219 105.398438 C 206.921875 105.523438 207.003906 105.648438 207.128906 105.660156 C 207.253906 105.6875 207.375 105.605469 207.390625 105.480469 C 207.417969 105.382812 207.472656 105.289062 207.527344 105.207031 C 207.597656 105.109375 207.679688 105.027344 207.777344 104.957031 C 208.121094 104.695312 208.519531 104.5 208.933594 104.351562 C 209.347656 104.183594 209.800781 104.074219 210.226562 103.992188 C 211.109375 103.8125 212.609375 103.8125 214.386719 104.074219 C 215.050781 104.171875 215.738281 104.292969 216.453125 104.472656 C 217.113281 104.625 217.804688 104.820312 218.480469 105.054688 C 220.984375 105.921875 223.519531 107.359375 225.433594 109.660156 C 225.515625 109.773438 225.667969 109.785156 225.777344 109.6875 C 225.890625 109.605469 225.902344 109.453125 225.820312 109.34375 C 223.917969 106.875 221.328125 105.273438 218.753906 104.320312 Z M 286.675781 119.636719 C 286.675781 119.636719 286.675781 119.648438 286.675781 119.679688 C 286.675781 119.648438 286.675781 119.621094 286.6875 119.609375 C 286.6875 119.621094 286.675781 119.621094 286.675781 119.636719 Z M 285.960938 118.257812 C 285.257812 117.734375 284.5 117.25 283.714844 116.835938 C 282.929688 116.40625 282.101562 116.050781 281.277344 115.773438 C 279.527344 115.179688 277.941406 114.78125 276.496094 114.558594 C 275.613281 114.433594 274.789062 114.367188 274.03125 114.339844 C 273.121094 114.324219 272.296875 114.367188 271.539062 114.449219 C 267.847656 114.902344 265.875 116.40625 265.421875 116.890625 C 265.339844 116.988281 265.339844 117.125 265.421875 117.207031 C 265.519531 117.304688 265.65625 117.304688 265.753906 117.207031 C 266.191406 116.78125 268.121094 115.496094 271.621094 115.195312 C 272.335938 115.140625 273.136719 115.109375 274.003906 115.152344 C 274.734375 115.179688 275.53125 115.25 276.371094 115.375 C 277.792969 115.582031 279.347656 115.910156 281.042969 116.464844 C 281.855469 116.710938 282.652344 117.027344 283.410156 117.414062 C 284.195312 117.789062 284.941406 118.230469 285.628906 118.710938 C 285.671875 118.753906 286.550781 119.304688 286.6875 119.566406 C 286.6875 119.582031 286.6875 119.59375 286.6875 119.609375 C 286.6875 119.59375 286.6875 119.59375 286.703125 119.582031 C 286.730469 119.636719 286.71875 119.679688 286.675781 119.707031 C 286.660156 119.71875 286.660156 119.691406 286.675781 119.679688 C 286.648438 119.734375 286.605469 119.773438 286.632812 119.84375 C 286.6875 119.96875 286.828125 120.035156 286.964844 119.996094 C 287.035156 119.953125 287.089844 119.914062 287.128906 119.855469 C 287.171875 119.773438 287.199219 119.648438 287.144531 119.5 C 286.992188 119.140625 286.015625 118.3125 285.960938 118.257812 Z M 245.078125 176.132812 C 244.964844 176.203125 244.925781 176.339844 244.996094 176.453125 C 245.078125 176.632812 245.0625 176.867188 245.023438 177.113281 C 244.964844 177.445312 244.816406 177.804688 244.621094 178.203125 C 244.539062 178.398438 244.429688 178.605469 244.320312 178.824219 C 244.210938 179.019531 244.085938 179.226562 243.976562 179.433594 C 243.753906 179.832031 243.519531 180.21875 243.300781 180.578125 C 242.84375 181.308594 242.40625 181.914062 242.15625 182.203125 C 242.058594 182.300781 242.046875 182.453125 242.15625 182.550781 C 242.253906 182.660156 242.40625 182.660156 242.5 182.550781 C 242.859375 182.246094 243.519531 181.515625 244.167969 180.617188 C 244.359375 180.34375 244.554688 180.050781 244.734375 179.761719 C 244.84375 179.554688 244.953125 179.363281 245.050781 179.15625 C 245.269531 178.6875 245.449219 178.203125 245.53125 177.777344 C 245.667969 177.140625 245.640625 176.589844 245.378906 176.230469 C 245.324219 176.121094 245.1875 176.078125 245.078125 176.132812 Z M 241.660156 174.835938 C 241.660156 174.851562 241.660156 174.878906 241.660156 174.894531 C 241.675781 174.894531 241.675781 174.894531 241.675781 174.894531 C 241.6875 174.894531 241.6875 174.90625 241.675781 174.933594 L 241.6875 174.960938 L 241.675781 174.933594 C 241.660156 174.976562 241.648438 175.015625 241.632812 175.042969 C 241.425781 175.679688 240.75 177.210938 240.695312 177.292969 C 240.433594 177.816406 240.132812 178.285156 239.800781 178.726562 C 239.582031 179.03125 239.359375 179.335938 239.113281 179.609375 C 238.644531 180.164062 238.148438 180.671875 237.625 181.15625 C 237.101562 181.652344 236.550781 182.121094 236 182.617188 C 235.890625 182.703125 235.875 182.867188 235.957031 182.976562 C 236.039062 183.089844 236.207031 183.101562 236.316406 183.003906 C 236.910156 182.550781 237.5 182.121094 238.066406 181.667969 C 238.644531 181.183594 239.195312 180.6875 239.703125 180.136719 C 239.980469 179.847656 240.242188 179.542969 240.476562 179.210938 C 240.820312 178.714844 241.109375 178.191406 241.371094 177.609375 C 241.414062 177.527344 241.964844 175.84375 242.101562 175.167969 C 242.128906 175.003906 242.144531 174.878906 242.128906 174.824219 C 242.089844 174.671875 242.003906 174.617188 241.910156 174.617188 C 241.769531 174.617188 241.675781 174.714844 241.660156 174.835938 Z M 241.660156 174.894531 C 241.648438 174.894531 241.660156 174.921875 241.675781 174.933594 C 241.675781 174.921875 241.675781 174.90625 241.660156 174.894531 Z M 237.03125 176.851562 C 237.308594 176.519531 237.542969 176.160156 237.761719 175.761719 C 237.957031 175.402344 238.066406 175.070312 238.121094 174.742188 C 238.191406 174.328125 238.191406 173.941406 238.203125 173.554688 C 238.203125 173.195312 238.21875 172.851562 238.3125 172.476562 C 238.355469 172.367188 238.300781 172.242188 238.175781 172.1875 C 238.050781 172.160156 237.929688 172.214844 237.886719 172.339844 C 237.582031 173.085938 237.667969 173.816406 237.460938 174.589844 C 237.390625 174.851562 237.292969 175.113281 237.117188 175.390625 C 236.910156 175.734375 236.660156 176.039062 236.414062 176.328125 C 236.152344 176.644531 235.875 176.921875 235.574219 177.183594 C 235.023438 177.707031 234.414062 178.175781 233.808594 178.644531 C 232.871094 179.375 231.9375 180.109375 231.164062 181.003906 C 231.082031 181.113281 231.082031 181.265625 231.191406 181.363281 C 231.289062 181.460938 231.453125 181.445312 231.550781 181.347656 C 232.335938 180.523438 233.300781 179.886719 234.238281 179.226562 C 234.882812 178.769531 235.546875 178.3125 236.125 177.789062 C 236.453125 177.5 236.757812 177.195312 237.03125 176.851562 Z M 183.546875 158.613281 C 183.476562 158.847656 183.394531 159.054688 183.3125 159.289062 C 183.257812 159.441406 183.203125 159.59375 183.148438 159.742188 C 183.105469 159.867188 183.066406 159.992188 183.039062 160.128906 C 182.996094 160.269531 182.96875 160.390625 182.941406 160.53125 C 182.886719 160.804688 182.859375 161.082031 182.859375 161.371094 C 182.832031 161.785156 182.859375 162.199219 182.941406 162.640625 C 182.953125 162.777344 183.078125 162.890625 183.214844 162.875 C 183.339844 162.863281 183.449219 162.738281 183.4375 162.601562 C 183.4375 162.199219 183.492188 161.839844 183.5625 161.480469 C 183.601562 161.234375 183.671875 160.984375 183.738281 160.738281 C 183.765625 160.597656 183.792969 160.460938 183.824219 160.335938 C 183.851562 160.199219 183.863281 160.046875 183.890625 159.921875 C 183.945312 159.507812 183.972656 159.09375 184 158.679688 C 184.015625 158.558594 183.933594 158.433594 183.808594 158.417969 C 183.683594 158.40625 183.5625 158.488281 183.546875 158.613281 Z M 187.074219 162.984375 C 187.058594 162.75 187.03125 162.515625 187.019531 162.28125 C 186.992188 161.785156 186.992188 161.304688 187.046875 160.863281 C 187.101562 160.351562 187.222656 159.921875 187.484375 159.621094 C 187.582031 159.535156 187.582031 159.398438 187.5 159.300781 C 187.402344 159.207031 187.265625 159.207031 187.183594 159.289062 C 186.785156 159.605469 186.523438 160.117188 186.371094 160.738281 C 186.261719 161.21875 186.207031 161.757812 186.21875 162.324219 C 186.21875 162.570312 186.234375 162.820312 186.261719 163.070312 C 186.316406 163.441406 186.382812 163.8125 186.453125 164.171875 C 186.714844 165.277344 187.101562 166.269531 187.417969 166.792969 C 187.484375 166.917969 187.636719 166.972656 187.761719 166.90625 C 187.886719 166.835938 187.925781 166.683594 187.859375 166.558594 C 187.609375 166.035156 187.363281 165.082031 187.195312 164.019531 C 187.140625 163.691406 187.113281 163.332031 187.074219 162.984375 Z M 192.167969 159.496094 C 192.195312 159.496094 192.195312 159.480469 192.183594 159.46875 L 192.167969 159.480469 Z M 191.992188 159.066406 C 192.113281 159.039062 192.238281 159.121094 192.265625 159.246094 C 192.292969 159.328125 192.253906 159.425781 192.183594 159.46875 C 192.183594 159.46875 192.167969 159.46875 192.167969 159.480469 C 192.15625 159.496094 192.128906 159.507812 192.101562 159.507812 C 192.113281 159.507812 192.140625 159.507812 192.167969 159.496094 C 192.167969 159.507812 192.167969 159.523438 192.167969 159.535156 C 192.03125 159.9375 191.964844 161.027344 191.949219 161.152344 C 191.894531 161.46875 191.851562 161.773438 191.8125 162.074219 C 191.785156 162.28125 191.757812 162.476562 191.730469 162.683594 C 191.660156 163.191406 191.617188 163.691406 191.617188 164.199219 C 191.632812 164.847656 191.703125 165.511719 191.90625 166.1875 C 191.949219 166.324219 191.878906 166.460938 191.757812 166.519531 C 191.617188 166.558594 191.480469 166.492188 191.425781 166.351562 C 191.066406 165.46875 190.902344 164.585938 190.875 163.675781 C 190.859375 163.234375 190.886719 162.777344 190.957031 162.324219 C 191.011719 161.882812 191.121094 161.441406 191.234375 161 C 191.273438 160.890625 191.453125 160.019531 191.632812 159.550781 C 191.6875 159.398438 191.742188 159.273438 191.796875 159.207031 C 191.867188 159.121094 191.933594 159.082031 191.992188 159.066406 " fill-opacity="1" fill-rule="evenodd"/><path fill="#fce8bc" d="M 242.40625 17.304688 C 243.492188 16.050781 244.789062 14.972656 246.179688 14.035156 C 247.019531 13.484375 247.902344 12.988281 248.78125 12.519531 C 249.375 12.214844 249.980469 11.910156 250.574219 11.636719 C 251.082031 11.402344 251.578125 11.179688 252.089844 10.972656 C 252.613281 10.78125 253.121094 10.574219 253.644531 10.394531 C 253.851562 10.324219 254.058594 10.242188 254.265625 10.171875 C 254.402344 10.132812 254.539062 10.089844 254.675781 10.0625 C 254.707031 10.078125 254.855469 10.105469 254.925781 10.117188 C 255.050781 10.132812 255.144531 10.105469 255.199219 10.0625 C 255.257812 10.007812 255.324219 9.9375 255.296875 9.800781 C 255.269531 9.675781 255.144531 9.59375 255.023438 9.621094 C 255.007812 9.621094 254.980469 9.636719 254.96875 9.636719 C 254.925781 9.636719 254.882812 9.605469 254.84375 9.605469 C 254.746094 9.578125 254.664062 9.566406 254.59375 9.578125 C 254.445312 9.59375 254.277344 9.636719 254.125 9.664062 C 253.90625 9.71875 253.6875 9.773438 253.464844 9.839844 C 252.929688 9.992188 252.390625 10.160156 251.855469 10.324219 C 251.316406 10.503906 250.792969 10.710938 250.269531 10.917969 C 249.636719 11.195312 249.015625 11.46875 248.398438 11.800781 C 247.488281 12.269531 246.605469 12.820312 245.765625 13.429688 C 244.347656 14.449219 243.066406 15.636719 242.019531 16.988281 C 241.9375 17.097656 241.949219 17.265625 242.058594 17.347656 C 242.171875 17.429688 242.320312 17.417969 242.40625 17.304688 Z M 266.453125 21.292969 C 266.125 20.09375 265.738281 18.90625 265.296875 17.773438 C 264.996094 16.988281 264.648438 16.230469 264.304688 15.511719 C 264.003906 14.917969 263.699219 14.339844 263.355469 13.789062 C 263.023438 13.222656 262.652344 12.671875 262.253906 12.144531 C 262.15625 12.007812 262.046875 11.871094 261.9375 11.730469 C 261.773438 11.539062 261.605469 11.34375 261.441406 11.152344 C 261.371094 11.082031 261.261719 11.015625 261.152344 10.933594 C 261.109375 10.917969 261.070312 10.875 261.027344 10.847656 C 261.042969 10.792969 261.015625 10.738281 260.988281 10.695312 C 260.917969 10.601562 260.765625 10.574219 260.667969 10.640625 C 260.601562 10.695312 260.574219 10.753906 260.546875 10.808594 C 260.519531 10.890625 260.53125 10.988281 260.601562 11.097656 C 260.683594 11.207031 260.957031 11.359375 261.054688 11.484375 C 261.179688 11.648438 261.304688 11.816406 261.425781 11.980469 C 261.550781 12.144531 261.660156 12.3125 261.773438 12.476562 C 262.128906 13.015625 262.460938 13.566406 262.761719 14.117188 C 263.066406 14.683594 263.339844 15.265625 263.601562 15.84375 C 263.933594 16.5625 264.238281 17.304688 264.539062 18.078125 C 264.96875 19.183594 265.378906 20.328125 265.738281 21.5 C 266.34375 23.472656 266.8125 25.488281 267.0625 27.40625 C 267.074219 27.542969 267.199219 27.640625 267.335938 27.625 C 267.472656 27.613281 267.570312 27.488281 267.558594 27.351562 C 267.390625 25.375 267.003906 23.308594 266.453125 21.292969 Z M 258.300781 9.097656 L 259.773438 8.972656 L 259.996094 8.945312 C 259.941406 8.835938 259.855469 8.738281 259.761719 8.65625 C 259.59375 8.53125 259.375 8.460938 259.097656 8.558594 C 258.960938 8.585938 258.835938 8.65625 258.714844 8.738281 C 258.589844 8.820312 258.464844 8.929688 258.355469 9.042969 C 258.339844 9.054688 258.328125 9.082031 258.300781 9.097656 Z M 257.667969 9.59375 C 257.625 9.550781 257.585938 9.484375 257.597656 9.359375 C 257.597656 9.25 257.789062 8.847656 257.886719 8.683594 C 258.011719 8.515625 258.148438 8.351562 258.300781 8.214844 C 258.464844 8.0625 258.660156 7.9375 258.863281 7.855469 C 259.417969 7.632812 259.910156 7.730469 260.269531 8.019531 C 260.601562 8.28125 260.820312 8.722656 260.890625 9.234375 C 260.890625 9.261719 260.917969 9.636719 260.558594 9.664062 C 260.546875 9.664062 260.546875 9.664062 260.53125 9.664062 L 259.800781 9.664062 C 259.527344 9.664062 259.25 9.664062 258.988281 9.648438 C 258.714844 9.636719 258.4375 9.636719 258.164062 9.605469 C 258.109375 9.605469 258.066406 9.59375 258.023438 9.566406 L 258.011719 9.578125 C 257.929688 9.648438 257.859375 9.648438 257.832031 9.648438 C 257.761719 9.664062 257.707031 9.621094 257.667969 9.59375 Z M 260.695312 31.089844 C 260.792969 31.183594 260.792969 31.335938 260.695312 31.449219 C 260.613281 31.542969 260.449219 31.542969 260.351562 31.449219 C 257.761719 29.074219 255.847656 26.054688 253.339844 23.804688 C 252.351562 22.90625 251.277344 22.148438 250.007812 21.597656 C 249.222656 21.25 248.382812 20.988281 247.445312 20.835938 C 246.9375 20.742188 246.398438 20.671875 245.875 20.660156 C 245.351562 20.644531 244.84375 20.671875 244.332031 20.796875 C 243.78125 20.921875 243.246094 21.113281 242.734375 21.375 C 242.210938 21.625 241.703125 21.929688 241.21875 22.246094 C 240.808594 22.507812 240.40625 22.78125 240.007812 23.058594 C 239.402344 23.488281 238.808594 23.929688 238.203125 24.355469 C 238.09375 24.4375 237.804688 24.589844 237.582031 24.757812 C 237.472656 24.839844 237.363281 24.90625 237.335938 24.992188 C 237.308594 25.113281 237.171875 25.183594 237.058594 25.15625 C 236.9375 25.113281 236.867188 24.992188 236.894531 24.867188 C 236.9375 24.742188 237.03125 24.605469 237.199219 24.464844 C 237.433594 24.257812 237.761719 24.050781 237.902344 23.957031 C 238.492188 23.5 239.070312 23.03125 239.664062 22.589844 C 240.050781 22.285156 240.449219 21.984375 240.863281 21.707031 C 241.453125 21.292969 242.089844 20.894531 242.75 20.574219 C 243.203125 20.355469 243.671875 20.175781 244.152344 20.050781 C 244.609375 19.941406 245.078125 19.886719 245.546875 19.871094 C 246.234375 19.859375 246.910156 19.925781 247.582031 20.039062 C 248.589844 20.203125 249.5 20.480469 250.324219 20.851562 C 251.675781 21.445312 252.816406 22.273438 253.851562 23.238281 C 256.332031 25.554688 258.164062 28.648438 260.695312 31.089844 " fill-opacity="1" fill-rule="evenodd"/><path fill="#fce8bc" d="M 258.507812 292.566406 C 258.507812 292.566406 228.105469 306.15625 201.785156 317.953125 C 182.832031 326.449219 166 334.011719 164.152344 334.839844 C 162.417969 334.066406 147.417969 327.429688 130.527344 319.992188 C 107.003906 309.617188 79.8125 297.683594 79.8125 297.683594 C 79.6875 297.628906 79.5625 297.683594 79.507812 297.792969 C 79.453125 297.917969 79.507812 298.042969 79.621094 298.097656 C 79.621094 298.097656 106.742188 310.210938 130.226562 320.667969 C 148.160156 328.65625 163.988281 335.667969 163.988281 335.667969 C 164.097656 335.707031 164.222656 335.707031 164.316406 335.667969 C 164.316406 335.667969 182.019531 327.691406 202.085938 318.628906 C 228.367188 306.75 258.714844 293.019531 258.714844 293.019531 C 258.851562 292.964844 258.90625 292.8125 258.851562 292.691406 C 258.78125 292.550781 258.644531 292.496094 258.507812 292.566406 Z M 164.9375 347.117188 C 165.046875 349.519531 165.117188 351.410156 165.117188 351.410156 C 165.128906 351.546875 165.019531 351.671875 164.882812 351.671875 C 164.746094 351.683594 164.632812 351.589844 164.621094 351.449219 C 164.621094 351.449219 164.429688 349.558594 164.222656 347.160156 C 164.140625 346.261719 164.054688 345.28125 163.988281 344.304688 C 163.945312 343.835938 163.917969 343.351562 163.890625 342.882812 C 163.863281 342.386719 163.835938 341.902344 163.820312 341.449219 C 163.710938 339.03125 163.671875 337.144531 163.671875 337.144531 C 163.671875 337.019531 163.765625 336.910156 163.890625 336.910156 C 164.015625 336.894531 164.125 336.992188 164.125 337.117188 C 164.125 337.117188 164.34375 338.992188 164.566406 341.390625 C 164.605469 341.847656 164.648438 342.332031 164.691406 342.8125 C 164.730469 343.296875 164.757812 343.765625 164.785156 344.25 C 164.855469 345.226562 164.894531 346.207031 164.9375 347.117188 " fill-opacity="1" fill-rule="evenodd"/><path fill="#bd651d" d="M 174.054688 250.746094 C 174.054688 250.746094 173.574219 260.765625 173.023438 273.527344 C 172.914062 275.980469 172.804688 278.519531 172.691406 281.113281 C 172.597656 283.625 172.5 286.164062 172.402344 288.714844 C 172.210938 293.902344 172.019531 299.105469 171.851562 303.90625 C 171.410156 316.667969 171.082031 326.699219 171.082031 326.699219 C 171.066406 326.835938 171.175781 326.960938 171.316406 326.960938 C 171.453125 326.960938 171.578125 326.851562 171.578125 326.710938 C 171.578125 326.710938 172.03125 316.695312 172.570312 303.933594 C 172.773438 299.132812 173.007812 293.945312 173.214844 288.742188 C 173.3125 286.207031 173.410156 283.652344 173.503906 281.15625 C 173.601562 278.546875 173.699219 276.007812 173.78125 273.554688 C 174.207031 260.792969 174.511719 250.761719 174.511719 250.761719 C 174.511719 250.636719 174.414062 250.527344 174.289062 250.527344 C 174.167969 250.527344 174.054688 250.625 174.054688 250.746094 Z M 242.308594 223.980469 C 242.308594 223.980469 220.160156 231.859375 201.011719 238.703125 C 187.308594 243.601562 175.128906 247.960938 173.644531 248.5 C 172.707031 248.097656 167.570312 245.792969 160.503906 242.675781 C 156.550781 240.910156 151.976562 238.894531 147.210938 236.800781 C 128.710938 228.632812 107.320312 219.234375 107.320312 219.234375 C 107.210938 219.179688 107.070312 219.234375 107.015625 219.347656 C 106.976562 219.46875 107.015625 219.59375 107.140625 219.648438 C 107.140625 219.648438 128.449219 229.222656 146.90625 237.488281 C 151.660156 239.613281 156.21875 241.640625 160.183594 243.40625 C 167.980469 246.882812 173.449219 249.3125 173.449219 249.3125 C 173.546875 249.355469 173.65625 249.355469 173.765625 249.328125 C 173.765625 249.328125 186.644531 244.675781 201.246094 239.394531 C 220.378906 232.464844 242.472656 224.449219 242.472656 224.449219 C 242.597656 224.394531 242.667969 224.257812 242.625 224.132812 C 242.570312 223.996094 242.433594 223.925781 242.308594 223.980469 Z M 136.921875 198.539062 C 140.351562 200.140625 144.054688 201.867188 147.773438 203.578125 C 149.59375 204.417969 151.410156 205.257812 153.203125 206.074219 C 155.0625 206.929688 156.878906 207.757812 158.644531 208.542969 C 167.265625 212.449219 174.070312 215.484375 174.855469 215.828125 C 174.855469 216.449219 174.882812 219.855469 174.953125 224.121094 C 174.980469 225.886719 175.007812 227.804688 175.046875 229.722656 C 175.0625 230.660156 175.089844 231.597656 175.117188 232.523438 C 175.160156 233.488281 175.1875 234.425781 175.214844 235.324219 C 175.40625 240.042969 175.585938 243.738281 175.585938 243.738281 C 175.585938 243.863281 175.695312 243.960938 175.820312 243.960938 C 175.945312 243.960938 176.039062 243.847656 176.039062 243.726562 C 176.039062 243.726562 176.039062 243.65625 176.039062 243.585938 C 176.8125 243.226562 178.792969 242.441406 181.644531 241.339844 C 184.910156 240.082031 189.289062 238.425781 194.113281 236.605469 C 196.785156 235.597656 199.59375 234.535156 202.445312 233.460938 C 206.644531 231.847656 210.917969 230.203125 214.898438 228.671875 C 224.277344 225.085938 232.058594 222.105469 233.601562 221.539062 C 233.742188 221.484375 233.808594 221.347656 233.753906 221.207031 C 233.714844 221.085938 233.5625 221.015625 233.4375 221.058594 C 231.757812 221.648438 222.886719 224.90625 212.554688 228.769531 C 209.84375 229.777344 207.03125 230.824219 204.222656 231.902344 C 202.363281 232.605469 200.503906 233.308594 198.683594 234.011719 C 194.566406 235.597656 190.613281 237.144531 187.167969 238.507812 C 181.632812 240.703125 177.472656 242.414062 176.039062 243.078125 C 176.027344 241.820312 176.011719 238.855469 175.984375 235.308594 C 175.972656 234.410156 175.945312 233.460938 175.929688 232.507812 C 175.914062 231.582031 175.886719 230.644531 175.859375 229.707031 C 175.804688 227.789062 175.738281 225.871094 175.667969 224.09375 C 175.53125 219.980469 175.390625 216.65625 175.363281 215.867188 C 176.523438 215.523438 183.851562 213.398438 193.078125 210.695312 C 195.007812 210.117188 197.003906 209.523438 199.058594 208.914062 C 201.027344 208.324219 203.023438 207.730469 205.035156 207.121094 C 209.113281 205.894531 213.1875 204.636719 216.964844 203.480469 C 226.976562 200.417969 234.84375 197.988281 234.84375 197.988281 C 234.980469 197.945312 235.050781 197.808594 235.007812 197.671875 C 234.964844 197.546875 234.828125 197.464844 234.703125 197.503906 C 234.703125 197.503906 226.796875 199.824219 216.757812 202.789062 C 212.96875 203.90625 208.878906 205.121094 204.800781 206.335938 C 202.789062 206.941406 200.792969 207.550781 198.824219 208.144531 C 196.785156 208.765625 194.785156 209.371094 192.859375 209.964844 C 183.328125 212.902344 175.832031 215.234375 175.128906 215.457031 C 174.773438 215.289062 167.832031 212.007812 158.960938 207.851562 C 157.210938 207.039062 155.390625 206.199219 153.546875 205.34375 C 151.753906 204.515625 149.921875 203.671875 148.105469 202.832031 C 144.386719 201.132812 140.667969 199.449219 137.222656 197.890625 C 128.078125 193.738281 120.886719 190.496094 120.886719 190.496094 C 120.75 190.441406 120.613281 190.496094 120.542969 190.621094 C 120.488281 190.746094 120.542969 190.898438 120.667969 190.953125 C 120.667969 190.953125 127.816406 194.304688 136.921875 198.539062 Z M 119.621094 216.519531 C 119.621094 216.460938 119.605469 216.421875 119.566406 216.460938 C 119.566406 216.476562 119.578125 216.488281 119.59375 216.503906 Z M 119.289062 216.835938 C 119.109375 216.695312 119.164062 216.53125 119.191406 216.488281 C 119.261719 216.378906 119.398438 216.351562 119.511719 216.421875 C 119.523438 216.433594 119.550781 216.449219 119.566406 216.460938 L 119.550781 216.460938 C 119.550781 216.476562 119.566406 216.488281 119.59375 216.503906 C 119.605469 216.53125 119.605469 216.558594 119.605469 216.585938 L 119.621094 216.546875 L 119.621094 216.519531 C 119.648438 216.546875 119.703125 216.558594 119.742188 216.585938 C 120.144531 216.808594 120.996094 217.234375 122.210938 217.828125 C 125.335938 219.359375 130.859375 221.953125 137.265625 225.003906 C 140.445312 226.507812 143.847656 228.148438 147.277344 229.804688 C 151.027344 231.625 154.800781 233.472656 158.367188 235.253906 C 165.1875 238.632812 171.234375 241.722656 174.855469 243.710938 C 174.964844 243.78125 175.019531 243.933594 174.953125 244.054688 C 174.882812 244.179688 174.730469 244.222656 174.605469 244.152344 C 170.75 242.082031 164.097656 238.828125 156.714844 235.253906 C 152.800781 233.363281 148.699219 231.40625 144.703125 229.472656 C 141.949219 228.132812 139.25 226.835938 136.699219 225.582031 C 132.015625 223.304688 127.84375 221.234375 124.742188 219.691406 C 122.347656 218.492188 120.613281 217.59375 119.785156 217.136719 C 119.523438 217 119.359375 216.890625 119.289062 216.835938 " fill-opacity="1" fill-rule="evenodd"/><path fill="#fce8bc" d="M 141.921875 296.457031 L 159.359375 303.878906 L 160.914062 270.324219 L 143.820312 264.101562 Z M 214.511719 234.011719 L 208.835938 230.507812 L 197.183594 235.585938 L 202.238281 239.585938 L 203.078125 277.554688 L 215.75 271.996094 Z M 167.527344 190.773438 L 177.265625 196.457031 L 155.515625 206.03125 L 153.449219 224.835938 L 141.78125 219.636719 L 144.234375 200.804688 L 167.527344 190.773438 " fill-opacity="1" fill-rule="evenodd"/><path fill="#fce8bc" d="M 265.160156 304.886719 C 265.132812 304.898438 265.089844 304.914062 265.035156 304.914062 C 265.0625 304.832031 265.078125 304.746094 265.089844 304.691406 C 265.105469 304.636719 265.132812 304.582031 265.144531 304.542969 C 265.351562 304.210938 265.601562 303.90625 265.667969 303.824219 C 266.070312 303.285156 267.28125 301.933594 268.507812 301.105469 C 268.960938 300.816406 269.417969 300.582031 269.816406 300.511719 C 270.078125 300.472656 270.324219 300.5 270.519531 300.664062 C 270.558594 300.707031 270.546875 300.746094 270.546875 300.800781 C 270.519531 300.886719 270.492188 300.96875 270.4375 301.050781 C 270.296875 301.339844 270.0625 301.617188 269.925781 301.753906 C 269.457031 302.304688 268.894531 302.789062 268.300781 303.214844 C 267.679688 303.644531 267.035156 304.015625 266.371094 304.347656 C 266.179688 304.445312 265.972656 304.542969 265.765625 304.636719 C 265.574219 304.71875 265.367188 304.804688 265.160156 304.886719 Z M 264.566406 303.65625 C 264.527344 303.835938 264.484375 304.003906 264.445312 304.183594 C 264.375 304.304688 264.304688 304.417969 264.238281 304.527344 C 263.878906 304.335938 263.644531 303.769531 263.4375 303.09375 C 263.011719 301.617188 262.859375 299.574219 262.761719 298.828125 C 262.734375 298.609375 262.625 298.054688 262.652344 297.585938 C 262.652344 297.464844 262.679688 297.339844 262.707031 297.242188 C 262.734375 297.199219 262.75 297.144531 262.804688 297.132812 C 262.875 297.105469 262.941406 297.144531 263.011719 297.1875 C 263.121094 297.257812 263.21875 297.351562 263.300781 297.449219 C 263.519531 297.726562 263.714844 298.054688 263.808594 298.234375 C 264.183594 298.910156 264.417969 299.671875 264.566406 300.457031 C 264.707031 301.242188 264.734375 302.058594 264.679688 302.832031 C 264.648438 303.09375 264.621094 303.382812 264.566406 303.65625 Z M 264.210938 305.066406 C 264.125 305.023438 264.210938 304.984375 264.304688 304.941406 C 264.292969 305.023438 264.265625 305.078125 264.210938 305.066406 Z M 276.304688 310.585938 C 273.769531 309.839844 271.46875 308.113281 269.003906 306.722656 C 268.398438 306.390625 267.761719 306.042969 267.117188 305.769531 C 266.757812 305.601562 266.398438 305.464844 266.015625 305.355469 L 266.082031 305.328125 C 266.289062 305.230469 266.511719 305.132812 266.714844 305.039062 C 267.40625 304.707031 268.109375 304.304688 268.742188 303.863281 C 269.402344 303.394531 270.007812 302.886719 270.53125 302.292969 C 270.765625 302.042969 271.234375 301.449219 271.332031 300.96875 C 271.414062 300.609375 271.332031 300.292969 271.042969 300.042969 C 270.421875 299.519531 269.566406 299.601562 268.671875 300.058594 C 267.445312 300.691406 266.136719 302.03125 265.421875 302.871094 C 265.476562 302.042969 265.421875 301.175781 265.257812 300.320312 C 265.089844 299.476562 264.816406 298.636719 264.386719 297.90625 C 264.222656 297.628906 263.863281 297.007812 263.453125 296.703125 C 263.191406 296.511719 262.902344 296.441406 262.613281 296.523438 C 262.308594 296.621094 262.128906 296.910156 262.0625 297.296875 C 261.976562 297.851562 262.144531 298.621094 262.183594 298.910156 C 262.296875 299.671875 262.488281 301.742188 262.96875 303.230469 C 263.230469 304.058594 263.574219 304.707031 264.03125 304.925781 C 264.042969 304.941406 264.058594 304.941406 264.070312 304.941406 C 264.015625 305.160156 264.042969 305.339844 264.125 305.453125 C 264.125 305.480469 264.140625 305.492188 264.15625 305.507812 C 264.167969 305.5625 264.183594 305.632812 264.222656 305.699219 C 264.25 305.742188 264.359375 305.867188 264.582031 305.894531 C 264.84375 305.949219 265.503906 305.976562 265.585938 306.003906 C 266.015625 306.101562 266.425781 306.25 266.839844 306.429688 C 267.460938 306.691406 268.066406 307.011719 268.660156 307.328125 C 271.191406 308.722656 273.5625 310.433594 276.152344 311.136719 C 277.886719 311.617188 279.734375 311.660156 281.785156 310.859375 C 281.910156 310.820312 281.976562 310.667969 281.921875 310.542969 C 281.882812 310.40625 281.730469 310.347656 281.605469 310.390625 C 279.664062 311.109375 277.941406 311.054688 276.304688 310.585938 Z M 283.714844 186.550781 C 283.808594 186.648438 283.808594 186.8125 283.714844 186.910156 C 283.605469 187.007812 283.453125 187.007812 283.355469 186.910156 C 282.914062 186.480469 282.40625 186.125 281.855469 185.792969 C 280.574219 185.003906 279.085938 184.398438 277.929688 183.558594 C 276.441406 182.46875 275.1875 181.210938 274.128906 179.816406 C 273.699219 179.253906 273.3125 178.660156 272.941406 178.039062 C 272.40625 177.140625 271.921875 176.203125 271.484375 175.210938 C 271.332031 174.878906 270.144531 172.535156 269.636719 171.113281 C 269.5 170.710938 269.402344 170.394531 269.390625 170.175781 C 269.375 169.996094 269.417969 169.871094 269.472656 169.800781 C 269.539062 169.691406 269.679688 169.675781 269.789062 169.761719 C 269.871094 169.828125 269.898438 169.953125 269.84375 170.050781 C 269.789062 170.035156 269.855469 170.1875 269.898438 170.3125 C 269.996094 170.699219 270.269531 171.292969 270.574219 171.925781 C 271.207031 173.210938 272.003906 174.644531 272.128906 174.90625 C 272.597656 175.859375 273.09375 176.753906 273.632812 177.625 C 274.003906 178.203125 274.375 178.769531 274.789062 179.320312 C 275.792969 180.671875 276.949219 181.914062 278.355469 182.976562 C 279.472656 183.847656 280.917969 184.496094 282.15625 185.308594 C 282.734375 185.683594 283.257812 186.082031 283.714844 186.550781 Z M 269.898438 293.324219 C 269.882812 293.324219 269.871094 293.324219 269.871094 293.308594 C 269.871094 293.296875 269.898438 293.324219 269.898438 293.324219 Z M 269.898438 293.324219 L 269.914062 293.339844 L 269.925781 293.339844 C 269.914062 293.339844 269.914062 293.339844 269.898438 293.324219 Z M 269.925781 293.351562 L 269.941406 293.351562 C 269.953125 293.367188 269.953125 293.367188 269.96875 293.378906 C 269.96875 293.367188 269.953125 293.351562 269.925781 293.351562 Z M 279.101562 292.757812 C 278.191406 292.925781 277.269531 293.074219 276.34375 293.199219 C 275.863281 293.269531 275.367188 293.324219 274.882812 293.367188 C 274.390625 293.421875 273.90625 293.449219 273.410156 293.449219 C 273.21875 293.449219 271.042969 293.378906 270.175781 293.339844 C 270.078125 293.324219 269.980469 293.339844 269.925781 293.339844 L 269.914062 293.339844 L 269.898438 293.324219 L 269.882812 293.324219 L 269.871094 293.308594 C 269.761719 293.269531 269.636719 293.324219 269.59375 293.433594 C 269.566406 293.460938 269.539062 293.710938 269.789062 293.765625 C 269.84375 293.78125 269.96875 293.792969 270.132812 293.820312 C 271 293.945312 273.203125 294.164062 273.398438 294.179688 C 274.015625 294.207031 274.636719 294.195312 275.242188 294.152344 C 275.65625 294.125 276.054688 294.082031 276.46875 294.015625 C 277.40625 293.875 278.328125 293.683594 279.238281 293.476562 C 280.601562 293.171875 281.949219 292.828125 283.355469 292.621094 C 283.492188 292.605469 283.589844 292.46875 283.578125 292.34375 C 283.546875 292.191406 283.425781 292.109375 283.285156 292.125 C 281.867188 292.261719 280.492188 292.511719 279.101562 292.757812 " fill-opacity="1" fill-rule="evenodd"/></svg>